<mxfile host="app.diagrams.net" modified="2024-06-14T12:16:51.314Z" agent="Mozilla/5.0 (Windows NT 10.0; Win64; x64) AppleWebKit/537.36 (KHTML, like Gecko) Chrome/125.0.0.0 Safari/537.36" etag="ujz1CKsy4Tpc8NovThUv" version="24.5.3" type="github">
  <diagram name="Page-1" id="0zEN2b8cDgVF4ogOgMnS">
    <mxGraphModel dx="918" dy="1028" grid="1" gridSize="10" guides="1" tooltips="1" connect="1" arrows="1" fold="1" page="1" pageScale="1" pageWidth="2336" pageHeight="1654" math="0" shadow="0">
      <root>
        <mxCell id="0" />
        <mxCell id="1" parent="0" />
        <mxCell id="u4oAooQUoLkduot50Cpv-4" value="managing the&lt;div&gt;organisation&lt;/div&gt;" style="ellipse;whiteSpace=wrap;html=1;aspect=fixed;fillColor=#f5f5f5;strokeColor=#666666;verticalAlign=top;fontColor=#333333;fontFamily=Times New Roman;" vertex="1" parent="1">
          <mxGeometry x="190" y="500" width="340" height="340" as="geometry" />
        </mxCell>
        <mxCell id="u4oAooQUoLkduot50Cpv-3" value="asset&lt;div&gt;management&lt;/div&gt;" style="ellipse;whiteSpace=wrap;html=1;aspect=fixed;fillColor=#ffe6cc;strokeColor=#d79b00;verticalAlign=top;fontFamily=Times New Roman;" vertex="1" parent="1">
          <mxGeometry x="220" y="560" width="280" height="280" as="geometry" />
        </mxCell>
        <mxCell id="u4oAooQUoLkduot50Cpv-2" value="asset&lt;div&gt;management&lt;/div&gt;&lt;div&gt;system&lt;/div&gt;" style="ellipse;whiteSpace=wrap;html=1;aspect=fixed;fillColor=#d5e8d4;strokeColor=#82b366;verticalAlign=top;fontFamily=Times New Roman;" vertex="1" parent="1">
          <mxGeometry x="250" y="620" width="220" height="220" as="geometry" />
        </mxCell>
        <mxCell id="u4oAooQUoLkduot50Cpv-1" value="&lt;font face=&quot;Times New Roman&quot;&gt;asset&lt;/font&gt;&lt;div&gt;&lt;font face=&quot;nABGj0ykk4Qzw1i4QC9N&quot;&gt;portfolio&lt;/font&gt;&lt;/div&gt;" style="ellipse;whiteSpace=wrap;html=1;aspect=fixed;fillColor=#dae8fc;strokeColor=#6c8ebf;fontFamily=Times New Roman;" vertex="1" parent="1">
          <mxGeometry x="280" y="680" width="160" height="160" as="geometry" />
        </mxCell>
      </root>
    </mxGraphModel>
  </diagram>
</mxfile>
